Project A 1 & 2 BDRip 720p DTS multisub [mkvonly]

#######################################################################################

Project A (1983) BDRip 720p DTS multisub [mkvonly]
 
http://www.imdb.com/title/tt0085127/

screen: 
http://www.bilderkiste.org/show/original/5132497440556/A1.png

Format : Matroska
File size : 2.40 GiB
Duration : 1h 45mn
Overall bit rate : 3 246 Kbps

Video
Bit rate : 2 500 Kbps
Display aspect ratio : 1280 x 544 (2.35:1)
Frame rate : 23.976 fps
Stream size : 1.79 GiB (75%)
Title : Project A (1983) BDRip 720p multisub [mkvonly]
Writing library : x264 core 112
Encoding settings : cabac=1 / ref=8 / deblock=1:-2:-1 / analyse=0x3:0x133 / me=umh /
subme=10 / psy=1 / psy_rd=2.00:0.00 / me_range=64 / chroma_me=1 / trellis=2 / 8x8dct=1 / bframes=10 /
b_pyramid=2 / b_adapt=2 / weightb=1 / weightp=2 / rc_lookahead=100 / rc=2pass / mbtree=1 / bitrate=2500

Audio Cantonese DTS 768 KB/s, 570 MiB (23%)

Subtitles:
Eng, Ara, Bul, Chi(2), Cze, Dan, Ger, Hun, Por Br, Rom, Rus, Spa, Srp

#######################################################################################

Project A 2 (1987) BDRip 720p DTS multisub [mkvonly]
 
http://www.imdb.com/title/tt0092501/

screen: 
http://www.bilderkiste.org/show/original/2132497449441/A2.png

sample: 
http://bayfiles.com/file/1hVV/Mwvs3z/Project_A_2_%5Bmkvonly%5D_00_09_49.mkv

Format : Matroska
File size : 2.41 GiB
Duration : 1h 46mn
Overall bit rate : 3 257 Kbps

Video
Bit rate : 2 500 Kbps
Display aspect ratio : 1280 x 544 (2.35:1)
Frame rate : 23.976 fps
Stream size : 1.81 GiB (75%)
Title : Project A 2 (1987) BDRip 720p multisub [mkvonly]
Writing library : x264 core 112
Encoding settings : the same

Audio Cantonese DTS 768 KB/s, 572 MiB (23%)

Subtitles:
Eng, Ara, Bul, Chi(2), Cze, Fre, Ger, Gre, Rom, Rus, Spa, Srp

#######################################################################################

more [mkvonly] Jackie Chan torrents:

Little Big Soldier 2010 BDRip 1080p multisub [mkvonly]

Armour of God 1 & 2 (Jackie Chan) Eng Hun

Shanghai Noon (2000)(Jackie Chan) Eng Hun

Hung fan au (1995)(Rumble in the Bronx) Eng Hun

Wo shi shei (1998)(Who Am I, Jackie Chan)

The Spy Next Door 2010 1080p Eng Fra Ger Hun Ita Spa